<?xml version="1.0" standalone="no"?>
<!DOCTYPE svg PUBLIC "-//W3C//DTD SVG 20010904//EN"
 "http://www.w3.org/TR/2001/REC-SVG-20010904/DTD/svg10.dtd">
<svg version="1.0" xmlns="http://www.w3.org/2000/svg"
 width="231.000000pt" height="231.000000pt" viewBox="0 0 231.000000 231.000000"
 preserveAspectRatio="xMidYMid meet">
<metadata>
Created by potrace 1.11, written by Peter Selinger 2001-2013
</metadata>
<g transform="translate(0.000000,231.000000) scale(0.100000,-0.100000)"
fill="#000000" stroke="none">
<path d="M579 1744 c-316 -279 -575 -507 -576 -508 -2 -1 25 -32 60 -69 l62
-67 514 455 c283 250 515 455 516 455 2 0 234 -205 516 -455 l514 -455 62 67
c35 37 60 70 55 74 -4 3 -259 229 -567 500 -308 272 -565 498 -572 502 -6 4
-242 -197 -584 -499z"/>
<path d="M340 1889 c0 -130 4 -209 10 -207 5 2 70 58 145 126 l135 123 0 85 0
84 -145 0 -145 0 0 -211z"/>
<path d="M747 1497 l-407 -360 0 -506 c0 -388 3 -512 13 -531 l13 -25 267 -3
267 -2 0 233 c0 214 2 235 18 250 16 15 48 17 239 17 200 0 221 -2 236 -18 15
-16 17 -49 17 -250 l0 -232 267 2 267 3 13 25 c10 19 13 143 13 531 l0 506
-372 329 c-205 181 -389 343 -408 360 l-35 31 -408 -360z"/>
</g>
</svg>
